<svg width="60" height="60" viewBox="0 0 60 60" fill="none" xmlns="http://www.w3.org/2000/svg">
<circle cx="30" cy="30" r="29.5" fill="#8C6D5A" fill-opacity="0.6" stroke="#666666"/>
<path d="M31.8937 13.3542C31.1176 12.6001 29.8824 12.6001 29.1063 13.3542L19.4762 22.7114C18.6679 23.4968 18.6679 24.7947 19.4762 25.5801L19.5453 25.6472C20.3208 26.4008 21.5548 26.4015 22.3312 25.6488L29.1078 19.0785C29.8836 18.3264 31.1164 18.3264 31.8922 19.0785L38.6688 25.6488C39.4452 26.4015 40.6792 26.4008 41.4547 25.6472L41.5238 25.5801C42.3321 24.7947 42.3321 23.4968 41.5238 22.7114L31.8937 13.3542Z" fill="#666666"/>
<path d="M26.176 33.78V35.082H23.264V44.112H21.766V35.082H18.84V33.78H26.176ZM29.4272 42.908C30.4632 42.908 31.1632 42.082 31.1632 40.808C31.1632 39.548 30.4632 38.708 29.4272 38.708C28.3912 38.708 27.6912 39.534 27.6912 40.808C27.6912 42.082 28.3772 42.908 29.4272 42.908ZM29.4272 37.434C31.3172 37.434 32.6472 38.834 32.6472 40.808C32.6472 42.768 31.3172 44.182 29.4272 44.182C27.5372 44.182 26.2072 42.768 26.2072 40.808C26.2072 38.834 27.5372 37.434 29.4272 37.434ZM37.5728 42.908C38.6508 42.908 39.3508 42.068 39.3508 40.794C39.3508 39.52 38.6508 38.68 37.5728 38.68C36.5648 38.68 35.7388 39.618 35.7388 40.794C35.7388 41.97 36.5648 42.908 37.5728 42.908ZM37.6568 37.434C39.5188 37.434 40.8348 38.82 40.8348 40.794C40.8348 42.782 39.5188 44.168 37.6568 44.168C37.1248 44.168 36.2568 43.874 35.7248 43.174V47.08H34.2408V37.434H35.7248V38.414C36.2568 37.714 37.1388 37.434 37.6568 37.434Z" fill="#666666"/>
</svg>
