<svg width="39" height="39" viewBox="0 0 39 39" fill="none" xmlns="http://www.w3.org/2000/svg">
<circle cx="19.5" cy="19.5" r="19" fill="white" stroke="currentcolor"/>
<path d="M20 30C21.1 30 22 29.0769 22 27.9487H18C18 29.0769 18.9 30 20 30ZM26 23.8462V18.7179C26 15.5692 24.37 12.9333 21.5 12.2359V11.5385C21.5 10.6872 20.83 10 20 10C19.17 10 18.5 10.6872 18.5 11.5385V12.2359C15.64 12.9333 14 15.559 14 18.7179V23.8462L12 25.8974V26.9231H28V25.8974L26 23.8462ZM24 24.8718H16V18.7179C16 16.1744 17.51 14.1026 20 14.1026C22.49 14.1026 24 16.1744 24 18.7179V24.8718Z" fill="currentColor"/>
</svg>
