<svg viewBox="0 0 16 16" xmlns="http://www.w3.org/2000/svg" fill="currentColor">
  <!-- Vertically centered to 16x16 for toolbar alignment -->
  <g transform="translate(0, 2.886)">
    <path d="M1.57999 3.95441C2.42724 3.95441 3.11408 3.26758 3.11408 2.42032C3.11408 1.57307 2.42724 0.88623 1.57999 0.88623C0.732734 0.88623 0.0458984 1.57307 0.0458984 2.42032C0.0458984 3.26758 0.732734 3.95441 1.57999 3.95441Z"/>
    <path d="M1.57999 11.1135C2.42724 11.1135 3.11408 10.4267 3.11408 9.57941C3.11408 8.73216 2.42724 8.04532 1.57999 8.04532C0.732734 8.04532 0.0458984 8.73216 0.0458984 9.57941C0.0458984 10.4267 0.732734 11.1135 1.57999 11.1135Z"/>
    <path d="M6.18226 9.06805H13.3414V10.0908H6.18226V9.06805ZM6.18226 1.90896H13.3414V2.93168H6.18226V1.90896Z"/>
  </g>
</svg>
