<svg viewBox="0 0 40 40" fill="none" xmlns="http://www.w3.org/2000/svg">
<path d="M30.0007 35H11.6673V13.3334L23.334 1.66669L25.4173 3.75002C25.6118 3.94446 25.7718 4.20835 25.8973 4.54169C26.0229 4.87502 26.0851 5.19446 26.084 5.50002V6.08335L24.2507 13.3334H35.0007C35.8895 13.3334 36.6673 13.6667 37.334 14.3334C38.0006 15 38.334 15.7778 38.334 16.6667V20C38.334 20.1945 38.3062 20.4028 38.2507 20.625C38.1951 20.8472 38.1395 21.0556 38.084 21.25L33.084 33C32.834 33.5556 32.4173 34.0278 31.834 34.4167C31.2507 34.8056 30.6395 35 30.0007 35ZM15.0007 31.6667H30.0007L35.0007 20V16.6667H20.0007L22.2507 7.50002L15.0007 14.75V31.6667ZM11.6673 13.3334V16.6667H6.66732V31.6667H11.6673V35H3.33398V13.3334H11.6673Z" fill="#638B56"/>
</svg>
