<svg width="37" height="37" viewBox="0 0 37 37" fill="none" xmlns="http://www.w3.org/2000/svg">
<path d="M18.6548 28.5979L18.5007 28.7521L18.3311 28.5979C11.0082 21.9533 6.16732 17.5596 6.16732 13.1042C6.16732 10.0208 8.47982 7.70833 11.5632 7.70833C13.9373 7.70833 16.2498 9.25 17.0669 11.3467H19.9344C20.7515 9.25 23.064 7.70833 25.4382 7.70833C28.5215 7.70833 30.834 10.0208 30.834 13.1042C30.834 17.5596 25.9932 21.9533 18.6548 28.5979ZM25.4382 4.625C22.7557 4.625 20.1811 5.87375 18.5007 7.83167C16.8202 5.87375 14.2457 4.625 11.5632 4.625C6.81482 4.625 3.08398 8.34042 3.08398 13.1042C3.08398 18.9162 8.32565 23.68 16.2652 30.8796L18.5007 32.9146L20.7361 30.8796C28.6757 23.68 33.9173 18.9162 33.9173 13.1042C33.9173 8.34042 30.1865 4.625 25.4382 4.625Z" fill="#638B56"/>
</svg>
