<svg width="15" height="14" viewBox="0 0 15 14" fill="none" xmlns="http://www.w3.org/2000/svg">
<path d="M7.12402 0.5C7.18027 0.5 7.24468 0.514763 7.32324 0.55957C7.36572 0.583837 7.40253 0.619221 7.43262 0.691406V0.693359L8.99316 4.39648L9.11035 4.67383L9.41016 4.7002L13.4336 5.05273C13.5526 5.07162 13.6012 5.10524 13.6182 5.12012C13.6594 5.15621 13.6979 5.20754 13.7275 5.28906C13.7505 5.35247 13.7549 5.41309 13.7402 5.48145C13.7314 5.52213 13.7087 5.57226 13.6416 5.63379L10.584 8.27637L10.3545 8.47363L10.4238 8.76758L11.3389 12.7002C11.3586 12.7865 11.3469 12.832 11.333 12.8613C11.2966 12.938 11.2486 12.9966 11.1875 13.0439C11.1431 13.0783 11.0894 13.1008 11.0127 13.1074C10.9656 13.1115 10.9146 13.103 10.8467 13.0596H10.8477L10.8359 13.0527L7.38184 10.9727L7.12402 10.8174L6.86621 10.9727L3.41211 13.0527L3.40234 13.0596C3.33387 13.1031 3.28174 13.1115 3.2334 13.1074C3.15819 13.1011 3.10627 13.0789 3.0625 13.0449C3.00023 12.9965 2.95153 12.9368 2.91504 12.8604C2.90169 12.8323 2.88941 12.7873 2.90918 12.7002L3.82422 8.76758L3.89355 8.47363L3.66504 8.27637L0.613281 5.63965C0.542099 5.57531 0.517988 5.52302 0.508789 5.48047C0.493921 5.4114 0.497949 5.35074 0.520508 5.28809C0.549352 5.20826 0.587678 5.1561 0.629883 5.11914C0.647717 5.10364 0.696608 5.072 0.8125 5.05371L4.83789 4.7002L5.1377 4.67383L5.25488 4.39648L6.81543 0.693359V0.691406C6.8455 0.619247 6.88236 0.583841 6.9248 0.55957C7.00334 0.51478 7.0678 0.500011 7.12402 0.5Z" fill="white" stroke="#638B56"/>
</svg>
