<svg viewBox="0 0 16 16" xmlns="http://www.w3.org/2000/svg" fill="currentColor">
  <!-- Vertically centered to 16x16 for toolbar alignment -->
  <g transform="translate(0, 1.864)">
    <path d="M6.72816 10.0683H13.8873V11.091H6.72816V10.0683ZM6.72816 2.90922H13.8873V3.93195H6.72816V2.90922ZM2.63725 4.95468V0.86377H1.61452V1.37513H0.591797V2.39786H1.61452V4.95468H0.591797V5.97741H3.65998V4.95468H2.63725ZM3.65998 13.1365H0.591797V11.091C0.591797 10.8198 0.699548 10.5597 0.891347 10.3679C1.08315 10.1761 1.34328 10.0683 1.61452 10.0683H2.63725V9.04559H0.591797V8.02286H2.63725C2.9085 8.02286 3.16863 8.13061 3.36043 8.32241C3.55223 8.51421 3.65998 8.77434 3.65998 9.04559V10.0683C3.65998 10.3396 3.55223 10.5997 3.36043 10.7915C3.16863 10.9833 2.9085 11.091 2.63725 11.091H1.61452V12.1138H3.65998V13.1365Z"/>
  </g>
</svg>
