<svg viewBox="0 0 16 16" xmlns="http://www.w3.org/2000/svg" fill="currentColor">
  <!-- Center original 13x14 graphic within 16x16 canvas -->
  <g transform="translate(1.5, 1)">
    <path d="M8.26225 5.97741C8.56567 5.97741 8.86227 5.88743 9.11455 5.71886C9.36683 5.5503 9.56345 5.3107 9.67957 5.03039C9.79568 4.75007 9.82606 4.44161 9.76687 4.14403C9.70767 3.84644 9.56156 3.5731 9.34702 3.35855C9.13247 3.144 8.85912 2.99789 8.56154 2.9387C8.26395 2.87951 7.9555 2.90989 7.67518 3.026C7.39486 3.14211 7.15527 3.33874 6.9867 3.59102C6.81813 3.8433 6.72816 4.1399 6.72816 4.44331C6.72816 4.85018 6.88979 5.24038 7.17749 5.52808C7.46518 5.81578 7.85539 5.97741 8.26225 5.97741ZM8.26225 3.93195C8.36339 3.93195 8.46226 3.96194 8.54635 4.01813C8.63044 4.07432 8.69599 4.15418 8.73469 4.24762C8.77339 4.34106 8.78352 4.44388 8.76379 4.54308C8.74406 4.64227 8.69536 4.73339 8.62384 4.8049C8.55232 4.87642 8.46121 4.92512 8.36201 4.94485C8.26282 4.96458 8.16 4.95446 8.06656 4.91575C7.97312 4.87705 7.89326 4.81151 7.83707 4.72741C7.78088 4.64332 7.75089 4.54445 7.75089 4.44331C7.75089 4.30769 7.80476 4.17763 7.90066 4.08173C7.99656 3.98583 8.12663 3.93195 8.26225 3.93195Z"/>
    <path d="M11.8418 0.86377H1.61452C1.34328 0.86377 1.08315 0.971521 0.891347 1.16332C0.699548 1.35512 0.591797 1.61525 0.591797 1.8865V12.1138C0.591797 12.385 0.699548 12.6451 0.891347 12.8369C1.08315 13.0287 1.34328 13.1365 1.61452 13.1365H11.8418C12.113 13.1365 12.3732 13.0287 12.565 12.8369C12.7568 12.6451 12.8645 12.385 12.8645 12.1138V1.8865C12.8645 1.61525 12.7568 1.35512 12.565 1.16332C12.3732 0.971521 12.113 0.86377 11.8418 0.86377ZM11.8418 12.1138H1.61452V9.04559L4.17134 6.48877L7.02986 9.34729C7.22149 9.53778 7.4807 9.64469 7.75089 9.64469C8.02108 9.64469 8.28029 9.53778 8.47191 9.34729L9.28498 8.53422L11.8418 11.091V12.1138ZM11.8418 9.64388L10.006 7.80809C9.81438 7.6176 9.55517 7.51069 9.28498 7.51069C9.01479 7.51069 8.75558 7.6176 8.56396 7.80809L7.75089 8.62116L4.89236 5.76263C4.70074 5.57215 4.44153 5.46523 4.17134 5.46523C3.90115 5.46523 3.64194 5.57215 3.45032 5.76263L1.61452 7.59843V1.8865H11.8418V9.64388Z"/>
  </g>
</svg>
