<svg viewBox="0 0 16 16" xmlns="http://www.w3.org/2000/svg" fill="currentColor">
  <g transform="translate(1.45, 2.45)">
    <path d="M4.50107 2.93182H10.732L8.89777 1.09807L9.6147 0.375L12.6829 3.44318L9.6147 6.51136L8.89777 5.78778L10.7305 3.95455H4.50107C3.68733 3.95455 2.90693 4.2778 2.33153 4.8532C1.75614 5.42859 1.43288 6.20899 1.43288 7.02273C1.43288 7.83646 1.75614 8.61686 2.33153 9.19226C2.90693 9.76766 3.68733 10.0909 4.50107 10.0909H8.59197V11.1136H4.50107C3.41609 11.1136 2.37555 10.6826 1.60836 9.91544C0.841162 9.14824 0.410156 8.1077 0.410156 7.02273C0.410156 5.93775 0.841162 4.89721 1.60836 4.13002C2.37555 3.36282 3.41609 2.93182 4.50107 2.93182V2.93182Z"/>
  </g>
</svg>
