<svg width="14" height="14" viewBox="0 0 14 14" fill="none" xmlns="http://www.w3.org/2000/svg">
<path fill-rule="evenodd" clip-rule="evenodd" d="M10.5 5.9999C10.5 6.59085 10.3836 7.17601 10.1575 7.72197C9.93133 8.26794 9.59986 8.76401 9.182 9.18188C8.76414 9.59974 8.26806 9.93121 7.72209 10.1574C7.17613 10.3835 6.59097 10.4999 6.00002 10.4999C5.40907 10.4999 4.82391 10.3835 4.27794 10.1574C3.73198 9.93121 3.2359 9.59974 2.81804 9.18188C2.40018 8.76401 2.06871 8.26794 1.84256 7.72197C1.61642 7.17601 1.50002 6.59085 1.50002 5.9999C1.50002 4.80642 1.97413 3.66183 2.81804 2.81792C3.66195 1.974 4.80654 1.4999 6.00002 1.4999C7.19349 1.4999 8.33809 1.974 9.182 2.81792C10.0259 3.66183 10.5 4.80642 10.5 5.9999ZM9.68002 10.7399C8.4744 11.6759 6.95739 12.1172 5.43782 11.974C3.91825 11.8309 2.51036 11.114 1.50077 9.96929C0.491174 8.82461 -0.0442298 7.3382 0.00355432 5.81265C0.0513384 4.2871 0.678718 2.8371 1.75797 1.75785C2.83723 0.678596 4.28722 0.0512164 5.81277 0.00343225C7.33832 -0.0443519 8.82473 0.491052 9.96942 1.50065C11.1141 2.51024 11.831 3.91813 11.9742 5.4377C12.1173 6.95726 11.676 8.47427 10.74 9.6799L13.53 12.4699C13.6037 12.5386 13.6628 12.6214 13.7038 12.7134C13.7448 12.8054 13.7668 12.9047 13.7686 13.0054C13.7704 13.1061 13.7519 13.2061 13.7141 13.2995C13.6764 13.3929 13.6203 13.4777 13.5491 13.5489C13.4778 13.6202 13.393 13.6763 13.2996 13.714C13.2062 13.7517 13.1062 13.7703 13.0055 13.7685C12.9048 13.7667 12.8055 13.7447 12.7135 13.7037C12.6215 13.6627 12.5387 13.6036 12.47 13.5299L9.68002 10.7399Z" fill="#5F8C56"/>
</svg>
