<svg width="20" height="21" viewBox="0 0 20 21" fill="none" xmlns="http://www.w3.org/2000/svg">
<path fill-rule="evenodd" clip-rule="evenodd" d="M6.24999 5.015V4C6.24999 3.00544 6.64508 2.05161 7.34834 1.34835C8.0516 0.645088 9.00543 0.25 9.99999 0.25C10.9945 0.25 11.9484 0.645088 12.6516 1.34835C13.3549 2.05161 13.75 3.00544 13.75 4V5.015C15.037 5.054 15.825 5.192 16.426 5.691C17.259 6.383 17.479 7.553 17.918 9.894L18.668 13.894C19.285 17.186 19.593 18.832 18.694 19.916C17.794 21 16.119 21 12.77 21H7.22999C3.87999 21 2.20599 21 1.30599 19.916C0.405987 18.832 0.715987 17.186 1.33199 13.894L2.08199 9.894C2.52199 7.554 2.74099 6.383 3.57399 5.691C4.17499 5.192 4.96299 5.054 6.24999 5.015ZM7.74999 4C7.74999 3.40326 7.98704 2.83097 8.409 2.40901C8.83095 1.98705 9.40325 1.75 9.99999 1.75C10.5967 1.75 11.169 1.98705 11.591 2.40901C12.0129 2.83097 12.25 3.40326 12.25 4V5H7.74999V4Z" fill="#638B56"/>
</svg>
