<svg width="15" height="15" viewBox="0 0 15 15" fill="none" xmlns="http://www.w3.org/2000/svg">
<path d="M7.25177 11.8162L3.79828 13.8966C3.64571 13.9937 3.48621 14.0353 3.31978 14.0215C3.15335 14.0076 3.00772 13.9521 2.88289 13.855C2.75807 13.758 2.66098 13.6367 2.59163 13.4914C2.52228 13.346 2.50841 13.1829 2.55002 13.0021L3.46541 9.07008L0.407191 6.42794C0.268496 6.30312 0.181951 6.16082 0.147554 6.00104C0.113158 5.84126 0.123421 5.68537 0.178344 5.53336C0.233267 5.38135 0.316484 5.25653 0.427995 5.15889C0.539505 5.06124 0.692069 4.99883 0.885687 4.97165L4.9217 4.61798L6.48202 0.914828C6.55136 0.748395 6.65899 0.623569 6.8049 0.540352C6.95081 0.457136 7.09976 0.415527 7.25177 0.415527C7.40378 0.415527 7.55274 0.457136 7.69865 0.540352C7.84455 0.623569 7.95218 0.748395 8.02153 0.914828L9.58184 4.61798L13.6179 4.97165C13.812 4.99939 13.9646 5.0618 14.0756 5.15889C14.1865 5.25597 14.2697 5.3808 14.3252 5.53336C14.3807 5.68593 14.3912 5.8421 14.3568 6.00187C14.3224 6.16165 14.2356 6.30367 14.0964 6.42794L11.0381 9.07008L11.9535 13.0021C11.9951 13.1824 11.9813 13.3455 11.9119 13.4914C11.8426 13.6373 11.7455 13.7585 11.6207 13.855C11.4958 13.9516 11.3502 14.007 11.1838 14.0215C11.0173 14.0359 10.8578 13.9943 10.7053 13.8966L7.25177 11.8162Z" fill="#5F8C56"/>
</svg>
