<svg viewBox="0 0 40 40" fill="none" xmlns="http://www.w3.org/2000/svg">
<path d="M38.3327 16.6667C38.3327 15.7826 37.9815 14.9348 37.3564 14.3097C36.7312 13.6845 35.8834 13.3334 34.9993 13.3334H24.466L26.066 5.71669C26.0993 5.55002 26.116 5.36669 26.116 5.18335C26.116 4.50002 25.8327 3.86669 25.3827 3.41669L23.616 1.66669L12.6493 12.6334C12.0327 13.25 11.666 14.0834 11.666 15V31.6667C11.666 32.5507 12.0172 33.3986 12.6423 34.0237C13.2674 34.6488 14.1153 35 14.9993 35H29.9993C31.3827 35 32.566 34.1667 33.066 32.9667L38.0993 21.2167C38.2493 20.8334 38.3327 20.4334 38.3327 20V16.6667ZM1.66602 35H8.33268V15H1.66602V35Z" fill="#638B56"/>
</svg>
