<svg viewBox="0 0 16 16" xmlns="http://www.w3.org/2000/svg" fill="currentColor">
  <g transform="translate(1.25, 2.45)">
    <path d="M9.04608 2.93182H2.81511L4.64937 1.09807L3.93244 0.375L0.864258 3.44318L3.93244 6.51136L4.64937 5.78778L2.81664 3.95455H9.04608C9.85981 3.95455 10.6402 4.2778 11.2156 4.8532C11.791 5.42859 12.1143 6.20899 12.1143 7.02273C12.1143 7.83646 11.791 8.61686 11.2156 9.19226C10.6402 9.76766 9.85981 10.0909 9.04608 10.0909H4.95517V11.1136H9.04608C10.1311 11.1136 11.1716 10.6826 11.9388 9.91544C12.706 9.14824 13.137 8.1077 13.137 7.02273C13.137 5.93775 12.706 4.89721 11.9388 4.13002C11.1716 3.36282 10.1311 2.93182 9.04608 2.93182Z"/>
  </g>
</svg>
